<svg
      xmlns="http://www.w3.org/2000/svg"
      width="390"
      height="183"
      viewBox="0 0 390 183"
      fill="none"
    >
      <path
        fill-rule="evenodd"
        clip-rule="evenodd"
        d="M194.854 0.1747C229.456 0.168932 263.435 9.46074 293.304 27.0961C323.173 44.7315 347.854 70.0751 364.815 100.525C366.239 166.02 348.119 217.137 317.721 253.628C326.413 129.083 252.948 19.6596 94.0859 28.2865C124.498 9.7909 159.351 0.0678371 194.854 0.1747Z"
        fill="url(#paint0_linear_2797_27428)"
      />
      <path
        fill-rule="evenodd"
        clip-rule="evenodd"
        d="M59.5114 338.96C36.4827 316.465 19.2879 288.588 9.44423 257.79C-0.399416 226.992 -2.58924 194.22 3.06799 162.364C8.72523 130.509 22.0556 100.55 41.8827 75.1317C61.7099 49.7133 87.4243 29.6167 116.757 16.6152C108.993 20.0337 101.45 23.9439 94.1729 28.3224C130.104 25.5503 166.205 30.626 200.023 43.2044C183.652 50.3478 167.917 58.8949 152.989 68.7519C131.629 83.1616 113.393 101.811 99.3912 123.566C85.389 145.321 75.913 169.727 71.5398 195.299C66.1225 231.913 70.6986 269.327 84.7749 303.507C98.8512 337.688 121.894 367.337 151.418 389.261C116.813 381.285 85.0283 363.889 59.5114 338.96Z"
        fill="url(#paint1_linear_2797_27428)"
      />
      <path
        fill-rule="evenodd"
        clip-rule="evenodd"
        d="M389.714 203.063C388.777 234.014 380.615 264.304 365.892 291.472C351.168 318.64 330.299 341.917 304.982 359.412C279.664 376.906 250.613 388.124 220.189 392.153C189.766 396.182 158.83 392.908 129.897 382.598C136.955 385.102 144.149 387.202 151.442 388.888C121.826 367.234 98.7941 337.661 84.9414 303.504C151.196 329.803 216.519 328.267 276.05 290.231C330.624 255.562 366.745 192.167 364.782 100.642C382.295 131.815 390.988 167.245 389.91 203.063H389.714Z"
        fill="url(#paint2_linear_2797_27428)"
      />
      <defs>
        <linearGradient
          id="paint0_linear_2797_27428"
          x1="229.49"
          y1="253.628"
          x2="229.49"
          y2="0.173828"
          gradientUnits="userSpaceOnUse"
        >
          <stop stop-color="#E83333" />
          <stop offset="1" stop-color="#821D1D" />
        </linearGradient>
        <linearGradient
          id="paint1_linear_2797_27428"
          x1="100.011"
          y1="16.6152"
          x2="100.011"
          y2="389.261"
          gradientUnits="userSpaceOnUse"
        >
          <stop stop-color="#E2AF45" />
          <stop offset="0.0835622" stop-color="#D9A842" />
          <stop offset="1" stop-color="#7C6026" />
        </linearGradient>
        <linearGradient
          id="paint2_linear_2797_27428"
          x1="237.47"
          y1="100.642"
          x2="237.47"
          y2="393.826"
          gradientUnits="userSpaceOnUse"
        >
          <stop stop-color="#599F99" />
          <stop offset="0.443697" stop-color="#72C0BA" />
        </linearGradient>
      </defs>
    </svg>