<svg width="507" height="492" viewBox="0 0 507 492" fill="none" xmlns="http://www.w3.org/2000/svg">
<circle cx="252.853" cy="259.853" r="220.353" stroke="#C5C5C5"/>
<rect x="120.133" y="413.796" width="77.6627" height="77.6627" rx="38.8313" fill="#E2AF45"/>
<g clip-path="url(#clip0_2777_26945)">
<path d="M159.133 434.796C149.246 434.796 141.133 442.91 141.133 452.796C141.133 462.683 149.246 470.796 159.133 470.796C169.019 470.796 177.133 462.683 177.133 452.796C177.133 442.91 169.019 434.796 159.133 434.796ZM159.133 464.398C152.736 464.398 147.531 459.193 147.531 452.796C147.531 446.399 152.736 441.195 159.133 441.195C165.53 441.195 170.734 446.399 170.734 452.796C170.734 459.193 165.53 464.398 159.133 464.398Z" fill="white"/>
<path d="M159.133 451.742C158.551 451.742 158.078 452.214 158.078 452.796C158.078 453.378 158.551 453.851 159.133 453.851C159.715 453.851 160.188 453.378 160.188 452.796C160.188 452.214 159.715 451.742 159.133 451.742Z" fill="white"/>
<path d="M164.09 448.725L165.841 446.089C164.68 444.928 163.225 444.064 161.601 443.642L160.188 446.468H158.078L156.665 443.642C155.041 444.064 153.585 444.928 152.425 446.089L154.176 448.725L153.121 450.539L149.957 450.349C149.746 451.13 149.641 451.953 149.641 452.796C149.641 453.64 149.746 454.463 149.957 455.243L153.121 455.053L154.176 456.867L152.425 459.504C153.585 460.664 155.041 461.529 156.665 461.951L158.078 459.124H160.188L161.601 461.951C163.225 461.529 164.68 460.664 165.841 459.504L164.09 456.867L165.144 455.053L168.308 455.243C168.52 454.463 168.625 453.64 168.625 452.796C168.625 451.953 168.52 451.13 168.309 450.349L165.145 450.539L164.09 448.725ZM159.133 455.96C157.388 455.96 155.969 454.541 155.969 452.796C155.969 451.052 157.388 449.632 159.133 449.632C160.877 449.632 162.297 451.052 162.297 452.796C162.297 454.541 160.877 455.96 159.133 455.96Z" fill="white"/>
</g>
<rect x="311.867" y="413.796" width="77.6627" height="77.6627" rx="38.8313" fill="#599F99"/>
<g clip-path="url(#clip1_2777_26945)">
<path d="M343.891 461.828H345.883V463.82H343.891V461.828Z" fill="white"/>
<path d="M347.875 461.828H349.867V463.82H347.875V461.828Z" fill="white"/>
<path d="M355.844 461.828H361.82V469.796H355.844V461.828Z" fill="white"/>
<path d="M339.906 461.828H341.898V463.82H339.906V461.828Z" fill="white"/>
<path d="M359.832 455.851V451.479L347.879 455.463V451.479L333.867 456.13V469.796H353.855V459.835H363.816V469.796H367.867V455.851H359.832ZM351.863 465.812H337.918V459.835H351.863V465.812Z" fill="white"/>
<path d="M363.819 443.898H349.594L349.904 442.661C350.602 439.87 353.098 437.921 355.973 437.921H360.382C361.084 436.706 362.389 435.796 363.819 435.796C366.017 435.796 367.87 437.716 367.87 439.914C367.87 442.111 366.017 443.898 363.819 443.898Z" fill="white"/>
<path d="M343.775 443.898H337.641L337.951 442.661C338.648 439.87 341.144 437.921 344.02 437.921H350.154L349.844 439.159C349.146 441.95 346.65 443.898 343.775 443.898Z" fill="white"/>
<path d="M354.852 451.039V445.89H350.867V452.367L354.852 451.039Z" fill="white"/>
<path d="M342.898 451.04V445.89H338.914V452.369L342.898 451.04Z" fill="white"/>
</g>
<rect x="428.359" y="264.538" width="77.6627" height="77.6627" rx="38.8313" fill="#C6485D"/>
<g clip-path="url(#clip2_2777_26945)">
<path d="M467.359 284.538L450.359 294.623V318.538H453.68V297.089H481.039V318.538H484.359V294.623L467.359 284.538ZM471.012 293.238H463.707V291.245H471.012V293.238Z" fill="white"/>
<path d="M455.672 318.538H458.129V310.304H462.246V302.07H472.473V310.304H476.59V318.538H479.047V299.081H455.672V318.538Z" fill="white"/>
<path d="M464.234 304.062H470.477V310.304H464.234V304.062Z" fill="white"/>
<path d="M468.359 312.296H474.602V318.538H468.359V312.296Z" fill="white"/>
<path d="M460.125 312.296H466.367V318.538H460.125V312.296Z" fill="white"/>
</g>
<rect y="264.538" width="77.6627" height="77.6627" rx="38.8313" fill="#599F99"/>
<g clip-path="url(#clip3_2777_26945)">
<path d="M54.8706 286.538H23.1294L22 297.682C22 300.03 23.9028 301.932 26.25 301.932C28.5972 301.932 30.5 300.03 30.5 297.682C30.5 300.03 32.4028 301.932 34.75 301.932C37.0972 301.932 39 300.03 39 297.682C39 300.03 40.9028 301.932 43.25 301.932C45.5972 301.932 47.5 300.03 47.5 297.682C47.5 300.03 49.4028 301.932 51.75 301.932C54.0972 301.932 56 300.03 56 297.682L54.8706 286.538Z" fill="white"/>
<path d="M51.7544 304.15C50.1291 304.15 48.6418 303.547 47.5044 302.553C46.367 303.547 44.8797 304.15 43.2544 304.15C41.6291 304.15 40.1418 303.547 39.0044 302.553C37.867 303.547 36.3797 304.15 34.7544 304.15C33.1291 304.15 31.6418 303.547 30.5044 302.553C29.367 303.547 27.8797 304.15 26.2544 304.15C25.1516 304.15 24.1126 303.872 23.2031 303.383V320.538H27.5976V307.529H35.0365V320.538H54.8057V303.383C53.8962 303.872 52.8572 304.15 51.7544 304.15ZM50.4112 315.137H39.7684V307.529H50.4111V315.137H50.4112Z" fill="white"/>
</g>
<rect x="42.4766" y="77.6627" width="77.6627" height="77.6627" rx="38.8313" fill="#BD3F53"/>
<g clip-path="url(#clip4_2777_26945)">
<path d="M97.3672 129.526V125.308H94.5547V118.628H92.4453V109.423L95.708 109.998L96.4406 105.844L73.0961 101.727L74.4523 97.3257L65.1746 95.6898L64.4993 109.136L70.4878 110.192L71.844 105.79L77.4024 106.771L75.6645 125.308H65.5859V129.526H63.4766V131.636H99.4766V129.526H97.3672ZM83.3111 118.979H79.8643L83.0244 115.921L83.3111 118.979ZM82.7178 112.651H80.4369L82.5223 110.566L82.7178 112.651ZM79.4866 107.138L82.2466 107.625L82.2666 107.838L79.1265 110.979L79.4866 107.138ZM78.772 114.761H81.1904L78.5307 117.335L78.772 114.761ZM78.1787 121.089H81.4542L77.9092 123.963L78.1787 121.089ZM79.6005 125.308L83.6003 122.064L83.9043 125.308H79.6005ZM90.3359 118.628H88.2266V125.308H86.023L84.4008 108.004L90.3359 109.051V118.628Z" fill="white"/>
</g>
<rect x="216" width="77.6627" height="77.6627" rx="38.8313" fill="#599F99"/>
<g clip-path="url(#clip5_2777_26945)">
<path d="M263.496 32.8535H247.5V35.2148C247.5 39.6245 251.088 43.2129 255.498 43.2129C259.908 43.2129 263.496 39.6245 263.496 35.2148V32.8535Z" fill="white"/>
<path d="M265.785 25.998H263.417C263.036 23.361 261.346 21.0783 258.93 19.9285V23.7129H256.645V18H254.359V23.7129H252.074V19.9285C249.658 21.0783 247.968 23.361 247.586 25.998H245.219V30.5684H265.785V25.998Z" fill="white"/>
<path d="M261.031 45.498H249.984L255.507 54.7794L261.031 45.498Z" fill="white"/>
<path d="M247.5 57H254.165L247.5 45.8149V57Z" fill="white"/>
<path d="M270.352 51.2109C270.352 48.4523 268.386 46.1445 265.781 45.6136V57H270.352V51.2109Z" fill="white"/>
<path d="M240.648 51.2109V57H245.219V45.6136C242.614 46.1445 240.648 48.4523 240.648 51.2109Z" fill="white"/>
<path d="M263.501 45.8146L256.836 57H263.501V45.8146Z" fill="white"/>
</g>
<rect x="389.523" y="77.6627" width="77.6627" height="77.6627" rx="38.8313" fill="#E2AF45"/>
<path d="M428.356 104.122C421.534 104.122 415.984 109.672 415.984 116.494C415.984 123.316 421.534 128.866 428.356 128.866C435.178 128.866 440.728 123.316 440.728 116.494C440.728 109.672 435.178 104.122 428.356 104.122ZM437.012 117.101H434.452V114.73L428.356 120.826L425.626 118.095L421.07 122.651L419.26 120.841L425.626 114.476L428.356 117.206L432.642 112.92H430.271V110.36H437.012V117.101Z" fill="white"/>
<path d="M450.201 119.224V113.764H447.276C447.058 112.243 446.662 110.781 446.109 109.398L448.64 107.937L445.909 103.208L443.375 104.671C442.44 103.485 441.367 102.412 440.181 101.477L441.644 98.9428L436.915 96.2125L435.454 98.7432C434.071 98.19 432.609 97.7941 431.089 97.5767V94.6514H425.628V97.5767C424.108 97.7941 422.645 98.19 421.263 98.7432L419.801 96.2125L415.072 98.9428L416.535 101.477C415.349 102.412 414.276 103.485 413.341 104.671L410.807 103.208L408.077 107.937L410.607 109.398C410.054 110.781 409.658 112.243 409.441 113.764H406.516V119.224H409.441C409.658 120.745 410.054 122.207 410.607 123.59L408.077 125.051L410.807 129.78L413.341 128.317C414.276 129.503 415.349 130.576 416.535 131.511L415.072 134.045L419.801 136.775L421.263 134.245C422.645 134.798 424.108 135.194 425.628 135.411V138.337H431.089V135.411C432.609 135.194 434.071 134.798 435.454 134.245L436.915 136.775L441.644 134.045L440.181 131.511C441.367 130.576 442.44 129.503 443.375 128.317L445.909 129.78L448.64 125.051L446.109 123.59C446.662 122.207 447.058 120.745 447.276 119.224H450.201ZM428.358 131.425C420.125 131.425 413.427 124.727 413.427 116.494C413.427 108.261 420.125 101.563 428.358 101.563C436.591 101.563 443.29 108.261 443.29 116.494C443.29 124.727 436.591 131.425 428.358 131.425Z" fill="white"/>
<defs>
<clipPath id="clip0_2777_26945">
<rect width="36" height="36" fill="white" transform="translate(141.133 434.796)"/>
</clipPath>
<clipPath id="clip1_2777_26945">
<rect width="34" height="34" fill="white" transform="translate(333.867 435.796)"/>
</clipPath>
<clipPath id="clip2_2777_26945">
<rect width="34" height="34" fill="white" transform="translate(450.359 284.538)"/>
</clipPath>
<clipPath id="clip3_2777_26945">
<rect width="34" height="34" fill="white" transform="translate(22 286.538)"/>
</clipPath>
<clipPath id="clip4_2777_26945">
<rect width="36" height="36" fill="white" transform="translate(63.4766 95.6627)"/>
</clipPath>
<clipPath id="clip5_2777_26945">
<rect width="39" height="39" fill="white" transform="translate(236 18)"/>
</clipPath>
</defs>
</svg>
