<svg width="311" height="315" viewBox="0 0 311 315" fill="none" xmlns="http://www.w3.org/2000/svg">
<path d="M310.128 183.861V136.012L268.35 131.385C265.532 120.215 261.104 109.686 255.329 100.056L281.628 67.2075L247.794 33.3731L214.909 59.7004C205.29 53.9522 194.776 49.5473 183.625 46.7445L178.987 4.87329H131.139L126.502 46.7455C115.35 49.5473 104.838 53.9522 95.2192 59.7004L62.3342 33.3731L28.4998 67.2075L54.7986 100.056C49.0238 109.686 44.5962 120.215 41.7777 131.385L0 136.012V183.861L41.7176 188.48C44.5193 199.689 48.9401 210.255 54.7168 219.919L28.4998 252.666L62.3342 286.5L95.0459 260.312C104.719 266.115 115.301 270.558 126.53 273.376L131.139 315H178.987L183.597 273.376C194.826 270.558 205.407 266.115 215.081 260.312L247.793 286.5L281.627 252.666L255.411 219.919C261.188 210.256 265.607 199.689 268.409 188.48L310.128 183.861ZM155.065 230.625C116.091 230.625 84.4968 199.031 84.4968 160.057C84.4968 121.083 116.091 89.4893 155.065 89.4893C194.038 89.4893 225.633 121.083 225.633 160.057C225.633 199.031 194.039 230.625 155.065 230.625Z" fill="#FFF4F6"/>
<mask id="mask0_2777_27007" style="mask-type:luminance" maskUnits="userSpaceOnUse" x="23" y="0" width="261" height="231">
<path d="M155.059 230.625C121.898 230.625 94.0794 207.754 86.5192 176.924C85.1937 171.519 23.1953 165.871 23.1953 160.057C23.1953 132.274 43.9015 43.2861 85.1297 7.09507C101.733 -7.47981 143.869 4.91671 155.059 4.91671C194.032 4.91671 292.388 96.6458 283.131 154.011C283.131 162.526 224.118 176.737 221.354 184.295C211.467 211.329 185.516 230.625 155.059 230.625Z" fill="white"/>
</mask>
<g mask="url(#mask0_2777_27007)">
<path d="M106.059 48.2769C103.056 48.6373 100.773 46.8352 102.215 43.8325C94.2875 45.3944 88.1611 40.5896 91.1647 34.9438C88.1267 37.5614 87.201 35.1841 89.1223 33.5021C80.8343 36.0242 75.2781 26.3447 82.0358 21.6108C77.7115 16.806 84.7981 6.59668 92.1259 16.5657C93.8079 13.0825 96.0897 14.7635 95.489 17.7671C99.8132 12.9624 111.825 20.5295 107.5 28.8175C109.783 28.457 110.143 29.4182 108.341 31.2194C112.185 31.9402 115.188 37.2256 109.182 40.7088C112.786 41.9102 114.618 46.8578 110.775 49.5C108.372 50.2219 105.294 50.664 106.059 48.2769Z" fill="#E2E1E1"/>
</g>
<mask id="mask1_2777_27007" style="mask-type:luminance" maskUnits="userSpaceOnUse" x="23" y="0" width="261" height="231">
<path d="M155.059 230.625C121.898 230.625 94.0794 207.754 86.5192 176.924C85.1937 171.519 23.1953 165.871 23.1953 160.057C23.1953 132.274 43.9015 43.2861 85.1297 7.09507C101.733 -7.47981 143.869 4.91671 155.059 4.91671C194.032 4.91671 292.388 96.6458 283.131 154.011C283.131 162.526 224.118 176.737 221.354 184.295C211.467 211.329 185.516 230.625 155.059 230.625Z" fill="white"/>
</mask>
<g mask="url(#mask1_2777_27007)">
<path d="M110.485 44.8125C107.483 45.1729 105.2 43.3708 106.642 40.3681C98.7141 41.93 92.5878 37.1252 95.5914 31.4794C92.5533 34.097 91.6276 31.7197 93.5489 30.0377C85.2609 32.5597 79.7048 22.8803 86.4614 18.1464C84.9862 16.5077 84.8404 14.2397 85.579 12.3578C81.4508 12.538 79.0843 18.3315 82.0358 21.6109C75.2781 26.3447 80.8343 36.0252 89.1223 33.5032C87.201 35.1852 88.1267 37.5615 91.1648 34.9439C88.1621 40.5897 94.2875 45.3945 102.215 43.8326C100.773 46.8352 103.056 48.6374 106.059 48.277C105.294 50.6641 108.372 50.2219 110.774 49.5011C111.965 48.6817 112.61 47.6408 112.826 46.5595C111.219 46.7486 109.966 46.4335 110.485 44.8125Z" fill="#D0CFCF"/>
</g>
<mask id="mask2_2777_27007" style="mask-type:luminance" maskUnits="userSpaceOnUse" x="23" y="0" width="261" height="231">
<path d="M155.059 230.625C121.898 230.625 94.0794 207.754 86.5192 176.924C85.1937 171.519 23.1953 165.871 23.1953 160.057C23.1953 132.274 43.9015 43.2861 85.1297 7.09507C101.733 -7.47981 143.869 4.91671 155.059 4.91671C194.032 4.91671 292.388 96.6458 283.131 154.011C283.131 162.526 224.118 176.737 221.354 184.295C211.467 211.329 185.516 230.625 155.059 230.625Z" fill="white"/>
</mask>
<g mask="url(#mask2_2777_27007)">
<path d="M224.008 197.49H83.1562V233.041H224.008V197.49Z" fill="#599F99"/>
<path d="M112.758 205.498H131.322" stroke="#9AD9D3" stroke-width="1.50213" stroke-miterlimit="10" stroke-linecap="round"/>
<path d="M140.844 213.156H159.408" stroke="#9AD9D3" stroke-width="1.50213" stroke-miterlimit="10" stroke-linecap="round"/>
<path d="M154.102 210.65H172.666" stroke="#9AD9D3" stroke-width="1.50213" stroke-miterlimit="10" stroke-linecap="round"/>
<path d="M143.82 202.595H152.812" stroke="#9AD9D3" stroke-width="1.50213" stroke-miterlimit="10" stroke-linecap="round"/>
<path d="M170.211 221.432H179.203" stroke="#9AD9D3" stroke-width="1.50213" stroke-miterlimit="10" stroke-linecap="round"/>
<path d="M124.359 219.449H133.351" stroke="#9AD9D3" stroke-width="1.50213" stroke-miterlimit="10" stroke-linecap="round"/>
<path d="M177.969 204.106H196.533" stroke="#9AD9D3" stroke-width="1.50213" stroke-miterlimit="10" stroke-linecap="round"/>
<path d="M130.715 64.9554H128.062V75.21H130.715V64.9554Z" fill="#08065F"/>
<path d="M99.777 64.9554H97.125V75.21H99.777V64.9554Z" fill="#08065F"/>
<path d="M110.905 49.438H107.453V159.953H110.905V49.438Z" fill="#08065F"/>
<path d="M101.159 99.6823H96.7812V137.076H101.159V99.6823Z" fill="#08065F"/>
<path d="M131.799 99.6823H127.422V137.076H131.799V99.6823Z" fill="#08065F"/>
<path d="M129.01 107.403H98.6797V109.654H129.01V107.403Z" fill="#08065F"/>
<path d="M129.01 125.24H98.6797V127.491H129.01V125.24Z" fill="#08065F"/>
<path d="M106.484 100.631L99.2891 107.689L100.077 108.492L107.272 101.434L106.484 100.631Z" fill="#08065F"/>
<path d="M121.375 100.626L120.586 101.429L127.774 108.493L128.563 107.69L121.375 100.626Z" fill="#08065F"/>
<path d="M100.599 126.444L99.7266 125.732L114.023 108.211H116.201L128.871 125.506L127.963 126.17L115.631 109.335H114.557L100.599 126.444Z" fill="#08065F"/>
<path d="M123.056 136.954L115.646 126.838H114.572L106.458 136.783L105.586 136.071L114.037 125.713H116.216L123.965 136.29L123.056 136.954Z" fill="#08065F"/>
<path d="M210.473 90.2949H208.648V160.048H210.473V90.2949Z" fill="#08065F"/>
<path d="M216.146 96.3829H214.414V160.096H216.146V96.3829Z" fill="#08065F"/>
<path d="M195.818 96.3829H194.086V160.096H195.818V96.3829Z" fill="#08065F"/>
<path d="M214.958 100.554H194.953V101.42H214.958V100.554Z" fill="#08065F"/>
<path d="M214.958 112.865H194.953V113.731H214.958V112.865Z" fill="#08065F"/>
<path d="M214.958 136.862H194.953V137.727H214.958V136.862Z" fill="#08065F"/>
<path d="M214.958 149.173H194.953V150.039H214.958V149.173Z" fill="#08065F"/>
<path d="M214.995 113.696L205.354 101.521H205.142L195.726 113.469L195.047 112.932L204.722 100.655H205.773L215.673 113.158L214.995 113.696Z" fill="#08065F"/>
<path d="M215.05 124.37L205.4 113.74H205.127L195.702 124.174L195.102 123.63L204.768 112.931H205.758L215.649 123.827L215.05 124.37Z" fill="#08065F"/>
<path d="M215.05 137.532L205.4 126.903H205.127L195.702 137.336L195.102 136.793L204.768 126.094H205.758L215.649 136.99L215.05 137.532Z" fill="#08065F"/>
<path d="M214.996 150.023L205.355 137.763H205.147L195.732 149.796L195.047 149.26L204.723 136.894H205.778L215.679 149.486L214.996 150.023Z" fill="#08065F"/>
<path d="M202.505 91.9663H198.781V94.8921H202.505V91.9663Z" fill="#08065F"/>
<path d="M168.419 23.5814H166.125V147.607H168.419V23.5814Z" fill="#08065F"/>
<path d="M181.312 149.615H152.645C152.344 149.615 152.056 149.49 151.851 149.268C151.646 149.048 151.543 148.751 151.566 148.451L160.547 29.3848C160.589 28.8196 161.06 28.3833 161.626 28.3833H172.329C172.896 28.3833 173.366 28.8196 173.408 29.3848L182.39 148.451C182.413 148.751 182.31 149.047 182.106 149.268C181.901 149.49 181.613 149.615 181.312 149.615ZM153.812 147.449H180.145L171.325 30.5479H162.631L153.812 147.449Z" fill="#C6485D"/>
<path d="M172.947 41.8483H161.504C160.906 41.8483 160.422 41.3638 160.422 40.766C160.422 40.1682 160.906 39.6837 161.504 39.6837H172.948C173.546 39.6837 174.031 40.1682 174.031 40.766C174.031 41.3638 173.546 41.8483 172.947 41.8483Z" fill="#C6485D"/>
<path d="M173.617 54.8555H160.418C159.82 54.8555 159.336 54.371 159.336 53.7732C159.336 53.1754 159.82 52.6909 160.418 52.6909H173.617C174.215 52.6909 174.7 53.1754 174.7 53.7732C174.7 54.371 174.215 54.8555 173.617 54.8555Z" fill="#C6485D"/>
<path d="M174.693 67.8634H159.324C158.727 67.8634 158.242 67.3789 158.242 66.7811C158.242 66.1834 158.727 65.6989 159.324 65.6989H174.693C175.291 65.6989 175.775 66.1834 175.775 66.7811C175.775 67.3789 175.291 67.8634 174.693 67.8634Z" fill="#C6485D"/>
<path d="M175.962 80.8715H158.153C157.555 80.8715 157.07 80.387 157.07 79.7892C157.07 79.1914 157.555 78.7069 158.153 78.7069H175.962C176.56 78.7069 177.045 79.1914 177.045 79.7892C177.045 80.387 176.56 80.8715 175.962 80.8715Z" fill="#C6485D"/>
<path d="M176.954 93.8798H157.246C156.649 93.8798 156.164 93.3953 156.164 92.7975C156.164 92.1997 156.649 91.7152 157.246 91.7152H176.954C177.552 91.7152 178.036 92.1997 178.036 92.7975C178.036 93.3953 177.552 93.8798 176.954 93.8798Z" fill="#C6485D"/>
<path d="M178.043 109.508H156.074C155.477 109.508 154.992 109.024 154.992 108.426C154.992 107.828 155.477 107.344 156.074 107.344H178.043C178.641 107.344 179.125 107.828 179.125 108.426C179.125 109.024 178.641 109.508 178.043 109.508Z" fill="#C6485D"/>
<path d="M179.4 127.941H154.629C154.031 127.941 153.547 127.456 153.547 126.858C153.547 126.261 154.031 125.776 154.629 125.776H179.4C179.997 125.776 180.482 126.261 180.482 126.858C180.483 127.456 179.998 127.941 179.4 127.941Z" fill="#C6485D"/>
<path d="M167.241 36.3465C168.034 36.3465 168.676 35.7037 168.676 34.9107C168.676 34.1177 168.034 33.4749 167.241 33.4749C166.448 33.4749 165.805 34.1177 165.805 34.9107C165.805 35.7037 166.448 36.3465 167.241 36.3465Z" fill="#C6485D"/>
<path d="M167.241 48.6168C168.034 48.6168 168.676 47.9739 168.676 47.1809C168.676 46.388 168.034 45.7451 167.241 45.7451C166.448 45.7451 165.805 46.388 165.805 47.1809C165.805 47.9739 166.448 48.6168 167.241 48.6168Z" fill="#C6485D"/>
<path d="M168.676 59.4513C168.676 60.2441 168.033 60.8871 167.241 60.8871C166.448 60.8871 165.805 60.2441 165.805 59.4513C165.805 58.6586 166.448 58.0155 167.241 58.0155C168.033 58.0155 168.676 58.6586 168.676 59.4513Z" fill="#C6485D"/>
<path d="M167.241 74.2676C168.034 74.2676 168.676 73.6248 168.676 72.8318C168.676 72.0388 168.034 71.396 167.241 71.396C166.448 71.396 165.805 72.0388 165.805 72.8318C165.805 73.6248 166.448 74.2676 167.241 74.2676Z" fill="#C6485D"/>
<path d="M168.676 85.6242C168.676 86.4169 168.033 87.06 167.241 87.06C166.448 87.06 165.805 86.4169 165.805 85.6242C165.805 84.8314 166.448 84.1884 167.241 84.1884C168.033 84.1884 168.676 84.8314 168.676 85.6242Z" fill="#C6485D"/>
<path d="M167.241 101.288C168.034 101.288 168.676 100.645 168.676 99.8525C168.676 99.0595 168.034 98.4166 167.241 98.4166C166.448 98.4166 165.805 99.0595 165.805 99.8525C165.805 100.645 166.448 101.288 167.241 101.288Z" fill="#C6485D"/>
<path d="M167.241 118.976C168.034 118.976 168.676 118.333 168.676 117.54C168.676 116.747 168.034 116.104 167.241 116.104C166.448 116.104 165.805 116.747 165.805 117.54C165.805 118.333 166.448 118.976 167.241 118.976Z" fill="#C6485D"/>
<path d="M167.241 137.904C168.034 137.904 168.676 137.261 168.676 136.468C168.676 135.675 168.034 135.032 167.241 135.032C166.448 135.032 165.805 135.675 165.805 136.468C165.805 137.261 166.448 137.904 167.241 137.904Z" fill="#C6485D"/>
<path d="M161.935 29.1487L161.336 29.7751L172.494 40.4411L173.093 39.8147L161.935 29.1487Z" fill="#C6485D"/>
<path d="M172.49 29.1545L161.336 39.8251L161.935 40.4513L173.089 29.7807L172.49 29.1545Z" fill="#C6485D"/>
<path d="M161.044 40.8735L160.383 41.5654L172.7 53.3406L173.361 52.6487L161.044 40.8735Z" fill="#C6485D"/>
<path d="M172.725 40.8669L160.406 52.6421L161.068 53.3341L173.386 41.5589L172.725 40.8669Z" fill="#C6485D"/>
<path d="M160.49 53.7041L159.82 54.5059L174.016 66.3701L174.686 65.5683L160.49 53.7041Z" fill="#C6485D"/>
<path d="M173.291 53.7127L159.094 65.5751L159.764 66.3769L173.961 54.5145L173.291 53.7127Z" fill="#C6485D"/>
<path d="M174.802 66.8281L157.5 79.3536L158.112 80.1992L175.414 67.6736L174.802 66.8281Z" fill="#C6485D"/>
<path d="M159.342 66.8983L158.734 67.7499L175.524 79.7227L176.132 78.8712L159.342 66.8983Z" fill="#C6485D"/>
<path d="M175.699 79.8181L156.648 92.2117L157.219 93.0883L176.269 80.6947L175.699 79.8181Z" fill="#C6485D"/>
<path d="M158.265 79.84L157.703 80.7208L176.667 92.8234L177.229 91.9426L158.265 79.84Z" fill="#C6485D"/>
<path d="M176.342 92.9594L155.758 107.359L156.357 108.215L176.941 93.8156L176.342 92.9594Z" fill="#C6485D"/>
<path d="M157.654 92.8298L157.039 93.6749L177.492 108.547L178.107 107.702L157.654 92.8298Z" fill="#C6485D"/>
<path d="M177.469 108.722L154.328 125.761L154.947 126.602L178.088 109.562L177.469 108.722Z" fill="#C6485D"/>
<path d="M156.376 108.647L155.75 109.482L178.803 126.741L179.429 125.905L156.376 108.647Z" fill="#C6485D"/>
<path d="M179.083 127.165L152.805 144.784L153.387 145.652L179.665 128.033L179.083 127.165Z" fill="#C6485D"/>
<path d="M154.83 126.815L154.242 127.679L180.236 145.364L180.824 144.5L154.83 126.815Z" fill="#C6485D"/>
<path d="M170.091 22.3415C169.48 23.5115 168.503 24.1466 167.182 24.1466C165.862 24.1466 164.856 23.0742 164.791 21.7556C164.695 19.8087 167.71 17.066 168.042 14.2919C170.543 18.2714 170.785 21.015 170.091 22.3415Z" fill="#FDC100"/>
<path d="M169.065 23.0871C168.706 23.7745 168.133 24.1467 167.358 24.1467C166.583 24.1467 165.992 23.5174 165.954 22.7434C165.898 21.601 167.668 19.9899 167.862 18.3621C169.33 20.698 169.472 22.3081 169.065 23.0871Z" fill="#F18700"/>
<path d="M114.343 171.906H89.875V214.923H114.343V171.906Z" fill="#B4B4B4"/>
<path d="M219.718 171.906H195.25V214.923H219.718V171.906Z" fill="#B4B4B4"/>
<path d="M114.343 179.259H89.875V207.57H114.343V179.259Z" fill="#E2E1E1"/>
<path d="M219.718 179.259H195.25V207.57H219.718V179.259Z" fill="#E2E1E1"/>
<path d="M183.377 146.957H150.463C147.825 146.957 145.688 149.095 145.688 151.732V159.231H188.154V151.732C188.153 149.095 186.015 146.957 183.377 146.957Z" fill="#08065F"/>
<path d="M204.14 92.4831H196.314C194.978 92.4831 193.891 91.3959 193.891 90.0595V73.9001C193.891 72.5638 194.978 71.4766 196.314 71.4766H204.14C205.476 71.4766 206.563 72.5638 206.563 73.9001V90.0595C206.563 91.3959 205.476 92.4831 204.14 92.4831Z" fill="#B2B2B2"/>
<path d="M206.919 78.5553H193.226C192.528 78.5553 191.961 77.9881 191.961 77.2908C191.961 76.5936 192.528 76.0264 193.226 76.0264H206.919C207.616 76.0264 208.183 76.5936 208.183 77.2908C208.183 77.9871 207.616 78.5553 206.919 78.5553Z" fill="#08065F"/>
<path d="M206.919 87.2225H193.226C192.528 87.2225 191.961 86.6553 191.961 85.9581C191.961 85.2608 192.528 84.6936 193.226 84.6936H206.919C207.616 84.6936 208.183 85.2608 208.183 85.9581C208.183 86.6553 207.616 87.2225 206.919 87.2225Z" fill="#08065F"/>
<path d="M216.909 97.7832H192.657C191.705 97.7832 190.93 97.0082 190.93 96.0559C190.93 95.1036 191.705 94.3286 192.657 94.3286H216.909C217.862 94.3286 218.637 95.1036 218.637 96.0559C218.637 97.0082 217.862 97.7832 216.909 97.7832Z" fill="#C6485D"/>
<path d="M216.909 126.924H192.657C191.705 126.924 190.93 126.149 190.93 125.197C190.93 124.245 191.705 123.47 192.657 123.47H216.909C217.862 123.47 218.637 124.245 218.637 125.197C218.637 126.149 217.862 126.924 216.909 126.924Z" fill="#C6485D"/>
<path d="M273.1 154.274L272.776 154.057L276.66 148.253L276.631 148.162L270.219 145.777L270.355 145.412L276.943 147.863L277.088 148.313L273.1 154.274Z" fill="#08065F"/>
<path d="M272.827 154.019L270.07 145.454L270.441 145.334L273.197 153.9L272.827 154.019Z" fill="#08065F"/>
<path d="M278.045 152.341L275.289 143.776L275.659 143.656L278.416 152.221L278.045 152.341Z" fill="#08065F"/>
<path d="M267.921 155.947L267.598 155.731L271.481 149.925L271.452 149.836L265.039 147.45L265.175 147.085L271.764 149.536L271.908 149.985L271.856 150.064L267.921 155.947Z" fill="#08065F"/>
<path d="M267.647 155.692L264.891 147.127L265.261 147.007L268.017 155.572L267.647 155.692Z" fill="#08065F"/>
<path d="M262.718 157.62L262.395 157.404L266.278 151.598L266.249 151.508L259.836 149.124L259.972 148.758L266.561 151.208L266.706 151.658L262.718 157.62Z" fill="#08065F"/>
<path d="M262.452 157.365L259.695 148.801L260.066 148.68L262.822 157.245L262.452 157.365Z" fill="#08065F"/>
<path d="M257.53 159.292L257.207 159.076L261.09 153.271L261.06 153.181L254.648 150.796L254.783 150.43L261.374 152.881L261.517 153.331L257.53 159.292Z" fill="#08065F"/>
<path d="M257.256 159.037L254.5 150.474L254.87 150.354L257.627 158.917L257.256 159.037Z" fill="#08065F"/>
<path d="M252.319 160.966L251.996 160.749L255.879 154.945L255.849 154.854L249.438 152.469L249.572 152.104L256.163 154.555L256.307 155.004L252.319 160.966Z" fill="#08065F"/>
<path d="M252.053 160.711L249.297 152.146L249.667 152.026L252.425 160.59L252.053 160.711Z" fill="#08065F"/>
<path d="M247.123 162.638L246.8 162.422L250.683 156.616L250.654 156.526L244.242 154.142L244.377 153.777L250.967 156.227L251.111 156.677L251.059 156.755L247.123 162.638Z" fill="#08065F"/>
<path d="M246.851 162.384L244.094 153.819L244.465 153.699L247.221 162.264L246.851 162.384Z" fill="#08065F"/>
<path d="M241.921 164.311L241.598 164.095L245.48 158.289L245.451 158.199L239.039 155.815L239.174 155.45L245.764 157.9L245.908 158.35L245.856 158.428L241.921 164.311Z" fill="#08065F"/>
<path d="M241.655 164.057L238.898 155.492L239.269 155.372L242.025 163.937L241.655 164.057Z" fill="#08065F"/>
<path d="M236.733 165.983L236.41 165.768L240.293 159.963L240.264 159.873L233.852 157.488L233.986 157.122L240.577 159.573L240.721 160.022L236.733 165.983Z" fill="#08065F"/>
<path d="M236.452 165.729L233.695 157.165L234.066 157.045L236.822 165.609L236.452 165.729Z" fill="#08065F"/>
<path d="M231.538 167.656L231.215 167.44L235.098 161.636L235.068 161.546L228.656 159.161L228.792 158.795L235.381 161.246L235.526 161.695L231.538 167.656Z" fill="#08065F"/>
<path d="M231.264 167.402L228.508 158.838L228.878 158.717L231.635 167.282L231.264 167.402Z" fill="#08065F"/>
<path d="M226.328 169.329L226.004 169.113L229.888 163.308L229.858 163.218L223.445 160.834L223.581 160.468L230.17 162.918L230.315 163.367L226.328 169.329Z" fill="#08065F"/>
<path d="M278.761 151.721L225.023 169.012L225.304 169.885L279.042 152.593L278.761 151.721Z" fill="#08065F"/>
<path d="M276.08 143.314L222.336 160.6L222.617 161.473L276.361 144.187L276.08 143.314Z" fill="#08065F"/>
<path d="M215.485 132.839L215.328 133.691L274.878 144.676L275.035 143.823L215.485 132.839Z" fill="#08065F"/>
<path d="M39.0353 154.274L35.0469 148.313L35.1916 147.863L41.7819 145.412L41.9168 145.777L35.5048 148.162L35.4753 148.253L39.3583 154.057L39.0353 154.274Z" fill="#08065F"/>
<path d="M39.3078 154.019L38.9375 153.9L41.6939 145.334L42.0642 145.454L39.3078 154.019Z" fill="#08065F"/>
<path d="M34.0968 152.341L33.7266 152.221L36.484 143.656L36.8542 143.776L34.0968 152.341Z" fill="#08065F"/>
<path d="M44.2228 155.947L40.2344 149.985L40.3782 149.536L46.9684 147.085L47.1033 147.45L40.6913 149.835L40.6628 149.925L44.5458 155.73L44.2228 155.947Z" fill="#08065F"/>
<path d="M44.5109 155.692L44.1406 155.572L46.897 147.007L47.2673 147.127L44.5109 155.692Z" fill="#08065F"/>
<path d="M49.4337 157.62L45.4453 151.658L45.5891 151.208L52.1793 148.758L52.3142 149.124L45.9023 151.508L45.8737 151.598L49.7567 157.404L49.4337 157.62Z" fill="#08065F"/>
<path d="M49.7062 157.365L49.3359 157.245L52.0924 148.68L52.4626 148.8L49.7062 157.365Z" fill="#08065F"/>
<path d="M54.6212 159.292L50.6328 153.331L50.7776 152.881L57.3668 150.43L57.5027 150.796L51.0907 153.181L51.0602 153.271L54.9442 159.076L54.6212 159.292Z" fill="#08065F"/>
<path d="M54.8937 159.038L54.5234 158.917L57.2799 150.354L57.6501 150.474L54.8937 159.038Z" fill="#08065F"/>
<path d="M59.8312 160.966L55.8438 155.004L55.9885 154.555L62.5777 152.103L62.7136 152.469L56.3007 154.854L56.2712 154.945L60.1542 160.749L59.8312 160.966Z" fill="#08065F"/>
<path d="M60.089 160.711L59.7188 160.59L62.4752 152.026L62.8455 152.146L60.089 160.711Z" fill="#08065F"/>
<path d="M65.0187 162.638L61.0312 156.676L61.176 156.227L67.7652 153.777L67.9002 154.142L61.4882 156.526L61.4587 156.617L65.3417 162.422L65.0187 162.638Z" fill="#08065F"/>
<path d="M65.2922 162.384L64.9219 162.263L67.6783 153.699L68.0486 153.819L65.2922 162.384Z" fill="#08065F"/>
<path d="M70.215 164.311L66.2266 158.35L66.3704 157.9L72.9606 155.45L73.0955 155.815L66.6835 158.199L66.655 158.289L70.538 164.095L70.215 164.311Z" fill="#08065F"/>
<path d="M70.4806 164.057L70.1094 163.937L72.8668 155.372L73.2371 155.492L70.4806 164.057Z" fill="#08065F"/>
<path d="M75.4103 165.983L71.4219 160.022L71.5666 159.573L78.1569 157.122L78.2918 157.487L71.8798 159.872L71.8503 159.963L75.7333 165.767L75.4103 165.983Z" fill="#08065F"/>
<path d="M75.6916 165.729L75.3203 165.609L78.0767 157.045L78.448 157.165L75.6916 165.729Z" fill="#08065F"/>
<path d="M80.6134 167.656L76.625 161.695L76.7698 161.246L83.36 158.795L83.4949 159.16L77.0829 161.546L77.0534 161.636L80.9364 167.44L80.6134 167.656Z" fill="#08065F"/>
<path d="M80.8781 167.402L80.5078 167.282L83.2642 158.717L83.6345 158.837L80.8781 167.402Z" fill="#08065F"/>
<path d="M85.8087 169.33L81.8203 163.368L81.9651 162.919L88.5553 160.468L88.6902 160.834L82.2782 163.218L82.2487 163.309L86.1317 169.113L85.8087 169.33Z" fill="#08065F"/>
<path d="M33.3747 151.726L33.0938 152.598L86.8323 169.896L87.1132 169.023L33.3747 151.726Z" fill="#08065F"/>
<path d="M36.0856 143.311L35.8047 144.184L89.5423 161.481L89.8232 160.608L36.0856 143.311Z" fill="#08065F"/>
<path d="M97.1845 132.614L37.1172 143.84L37.2762 144.691L97.3435 133.465L97.1845 132.614Z" fill="#08065F"/>
<path d="M132.672 66.8274H95.2787C93.9659 66.8274 92.8984 65.7589 92.8984 64.4462C92.8984 63.1334 93.9659 62.0649 95.2787 62.0649H132.672C133.985 62.0649 135.053 63.1334 135.053 64.4462C135.053 65.7589 133.985 66.8274 132.672 66.8274Z" fill="#C6485D"/>
<path d="M142.322 99.0262H95.2578V76.0776H142.322V99.0262Z" fill="#E2E1E1"/>
<path d="M142.907 78.8765H95.2865C93.9738 78.8765 92.9062 77.8089 92.9062 76.4962C92.9062 75.1835 93.9738 74.115 95.2865 74.115H142.907C144.22 74.115 145.288 75.1835 145.288 76.4962C145.288 77.8089 144.22 78.8765 142.907 78.8765Z" fill="#C6485D"/>
<path d="M102.686 80.074H99.1797V85.0826H102.686V80.074Z" fill="#08065F"/>
<path d="M111.342 80.074H107.836V85.0826H111.342V80.074Z" fill="#08065F"/>
<path d="M120.006 80.074H116.5V85.0826H120.006V80.074Z" fill="#08065F"/>
<path d="M128.654 80.074H125.148V85.0826H128.654V80.074Z" fill="#08065F"/>
<path d="M137.311 80.074H133.805V85.0826H137.311V80.074Z" fill="#08065F"/>
<path d="M142.322 160.82H95.2578V137.87H142.322V160.82Z" fill="#E2E1E1"/>
<path d="M142.907 140.67H95.2865C93.9738 140.67 92.9062 139.602 92.9062 138.289C92.9062 136.976 93.9738 135.908 95.2865 135.908H142.907C144.22 135.908 145.288 136.976 145.288 138.289C145.288 139.602 144.22 140.67 142.907 140.67Z" fill="#C6485D"/>
<path d="M102.686 141.868H99.1797V146.876H102.686V141.868Z" fill="#08065F"/>
<path d="M111.342 141.868H107.836V146.876H111.342V141.868Z" fill="#08065F"/>
<path d="M120.006 141.868H116.5V146.876H120.006V141.868Z" fill="#08065F"/>
<path d="M128.654 141.868H125.148V146.876H128.654V141.868Z" fill="#08065F"/>
<path d="M137.311 141.868H133.805V146.876H137.311V141.868Z" fill="#08065F"/>
<path d="M116.748 220.444H87.1562V212.262C87.1562 211.611 87.6841 211.083 88.335 211.083H115.568C116.219 211.083 116.747 211.611 116.747 212.262V220.444H116.748Z" fill="#C6485D"/>
<path d="M222.131 220.444H192.539V212.262C192.539 211.611 193.067 211.083 193.718 211.083H220.951C221.602 211.083 222.13 211.611 222.13 212.262V220.444H222.131Z" fill="#C6485D"/>
<path d="M222.394 173.891H88.3115C86.5044 173.891 85.0391 172.425 85.0391 170.618V162.032C85.0391 160.225 86.5044 158.759 88.3115 158.759H222.395C224.203 158.759 225.668 160.225 225.668 162.032V170.618C225.667 172.425 224.202 173.891 222.394 173.891Z" fill="#C6485D"/>
<path d="M142.899 101.632H95.2787C93.9659 101.632 92.8984 100.564 92.8984 99.2508C92.8984 97.9381 93.9659 96.8696 95.2787 96.8696H142.899C144.212 96.8696 145.28 97.9381 145.28 99.2508C145.28 100.564 144.212 101.632 142.899 101.632Z" fill="#C6485D"/>
</g>
</svg>
