<svg width="193" height="54" viewBox="0 0 193 54" fill="none" xmlns="http://www.w3.org/2000/svg">
<path fill-rule="evenodd" clip-rule="evenodd" d="M27.677 0.0216038C32.419 0.0208135 37.0757 1.29393 41.169 3.71026C45.2624 6.12658 48.6449 9.59903 50.9693 13.7711C51.1645 22.7449 48.6811 29.7487 44.5153 34.7485C45.7065 17.684 35.6385 2.69134 13.8672 3.87336C18.035 1.33917 22.8114 0.00696198 27.677 0.0216038Z" fill="#C6485D"/>
<path fill-rule="evenodd" clip-rule="evenodd" d="M9.11865 46.4123C5.96192 43.3318 3.60488 39.5143 2.25553 35.2968C0.906186 31.0793 0.606009 26.5913 1.38149 22.229C2.15698 17.8667 3.98428 13.7641 6.70215 10.2832C9.42002 6.8024 12.9449 4.05033 16.9658 2.2699C15.9014 2.73803 14.8675 3.27349 13.87 3.8731C18.7954 3.49349 23.7441 4.18855 28.3797 5.91106C26.1356 6.88929 23.9786 8.05974 21.9324 9.40957C19.0044 11.3829 16.5047 13.9368 14.5853 16.9159C12.6659 19.8951 11.367 23.2372 10.7675 26.7391C10.0249 31.7531 10.6522 36.8767 12.5817 41.5574C14.5113 46.2381 17.6699 50.2984 21.7171 53.3006C16.9734 52.2084 12.6165 49.8262 9.11865 46.4123Z" fill="#E2AF45"/>
<path fill-rule="evenodd" clip-rule="evenodd" d="M54.3671 27.8132C54.2386 32.0584 53.1194 36.2131 51.1005 39.9395C49.0815 43.6658 46.2198 46.8586 42.748 49.2582C39.2762 51.6579 35.2924 53.1965 31.1205 53.7491C26.9486 54.3018 22.7064 53.8527 18.7388 52.4386C19.7068 52.7819 20.6932 53.07 21.6933 53.3013C17.6322 50.3311 14.4738 46.2748 12.5742 41.5898C21.6596 45.197 30.6172 44.9864 38.7806 39.7692C46.2643 35.014 51.2175 26.3186 50.9483 13.7648C53.3499 18.0406 54.5418 22.9002 54.394 27.8132H54.3671Z" fill="#599F99"/>
<path fill-rule="evenodd" clip-rule="evenodd" d="M15.0547 40.3057C19.3215 28.7912 35.8233 28.7572 35.0897 13.8121C34.3023 23.8797 17.3765 25.5984 15.0547 40.3057Z" fill="#E2AF45"/>
<path fill-rule="evenodd" clip-rule="evenodd" d="M15.7344 40.2849C24.0526 27.731 27.4714 33.7634 34.6186 23.0573C33.4678 34.5378 26.0244 30.3056 15.7344 40.2849Z" fill="#599F99"/>
<path fill-rule="evenodd" clip-rule="evenodd" d="M16.6562 40.842C25.782 31.7255 29.5441 36.569 34.5848 27.962C33.2388 37.8733 21.2932 37.4046 16.6562 40.8692" fill="#39565E"/>
<path fill-rule="evenodd" clip-rule="evenodd" d="M28.0411 14.4912C28.6534 14.4912 29.2519 14.6745 29.761 15.0179C30.2701 15.3612 30.6669 15.8493 30.9012 16.4203C31.1355 16.9913 31.1968 17.6196 31.0774 18.2257C30.9579 18.8319 30.6631 19.3887 30.2301 19.8257C29.7972 20.2627 29.2456 20.5604 28.645 20.6809C28.0445 20.8015 27.4221 20.7396 26.8564 20.5031C26.2907 20.2666 25.8072 19.8661 25.467 19.3522C25.1269 18.8383 24.9453 18.2341 24.9453 17.6161C24.9453 16.7873 25.2715 15.9925 25.852 15.4065C26.4326 14.8204 27.22 14.4912 28.0411 14.4912Z" fill="#C6485D"/>
<path d="M71.366 19.3158V34.5H68.5085V19.3158H71.366ZM76.0797 19.3158V21.5788H63.8469V19.3158H76.0797ZM77.3475 19.3158H82.8642C84.0183 19.3158 85.0091 19.4896 85.8364 19.8372C86.6638 20.1849 87.2999 20.6994 87.7449 21.3807C88.1898 22.062 88.4123 22.8998 88.4123 23.894C88.4123 24.6796 88.2733 25.361 87.9952 25.938C87.7171 26.5151 87.3242 26.9983 86.8167 27.3876C86.3161 27.777 85.7252 28.0829 85.0438 28.3054L84.147 28.7642H79.2768L79.2559 26.5012H82.8955C83.4865 26.5012 83.9766 26.3969 84.366 26.1883C84.7553 25.9798 85.0473 25.6912 85.242 25.3227C85.4436 24.9543 85.5444 24.5336 85.5444 24.0609C85.5444 23.5533 85.4471 23.1153 85.2524 22.7469C85.0577 22.3714 84.7623 22.0829 84.366 21.8813C83.9697 21.6796 83.4691 21.5788 82.8642 21.5788H80.2153V34.5H77.3475V19.3158ZM85.9198 34.5L82.4054 27.7005L85.4401 27.6901L88.9963 34.354V34.5H85.9198ZM100.349 32.2474V34.5H92.2768V32.2474H100.349ZM93.1528 19.3158V34.5H90.2849V19.3158H93.1528ZM99.2953 25.5835V27.7839H92.2768V25.5835H99.2953ZM100.317 19.3158V21.5788H92.2768V19.3158H100.317ZM111.774 25.5835V27.8361H103.785V25.5835H111.774ZM104.568 19.3158V34.5H101.7V19.3158H104.568ZM113.901 19.3158V34.5H111.033V19.3158H113.901ZM122.407 21.6206L118.079 34.5H115.044L120.717 19.3158H122.657L122.407 21.6206ZM126.025 34.5L121.677 21.6206L121.416 19.3158H123.366L129.07 34.5H126.025ZM125.827 28.8581V31.1211H117.682V28.8581H125.827ZM142.196 19.3158V34.5H139.317L132.862 23.967V34.5H129.994V19.3158H132.862L139.338 29.8592V19.3158H142.196ZM152.208 19.3158V34.5H149.341V19.3158H152.208ZM166.867 19.3158V34.5H163.988L157.533 23.967V34.5H154.665V19.3158H157.533L164.009 29.8592V19.3158H166.867ZM175.351 19.3158V34.5H172.494V19.3158H175.351ZM180.065 19.3158V21.5788H167.832V19.3158H180.065ZM190.969 32.2474V34.5H183.335V32.2474H190.969ZM184.2 19.3158V34.5H181.332V19.3158H184.2Z" fill="#E3000F"/>
</svg>
