<svg width="153" height="69" viewBox="0 0 153 69" fill="none" xmlns="http://www.w3.org/2000/svg">
<g clip-path="url(#clip0_1489_3217)">
<path fill-rule="evenodd" clip-rule="evenodd" d="M34.1282 3.04148e-05C40.1839 -0.000978839 46.1308 1.62488 51.3583 4.71067C56.5858 7.79646 60.9055 12.231 63.8739 17.559C64.1231 29.0191 60.9517 37.9634 55.6317 44.3485C57.153 22.556 44.2955 3.40945 16.4922 4.91896C21.8148 1.68264 27.9146 -0.0186681 34.1282 3.04148e-05Z" fill="#C6485D"/>
<path fill-rule="evenodd" clip-rule="evenodd" d="M10.4257 59.2436C6.39437 55.3096 3.38429 50.4345 1.66109 45.0485C-0.0621083 39.6624 -0.445453 33.9311 0.544887 28.3601C1.53523 22.7891 3.8688 17.5499 7.33969 13.1046C10.8106 8.65938 15.3121 5.14482 20.4469 2.87109C19.0878 3.46892 17.7673 4.15274 16.4935 4.91848C22.7835 4.43369 29.1033 5.32133 35.0233 7.52109C32.1574 8.77035 29.4028 10.2651 26.7897 11.9889C23.0505 14.5089 19.8582 17.7704 17.407 21.575C14.9558 25.3795 13.2969 29.6477 12.5314 34.1198C11.583 40.523 12.3841 47.0661 14.8483 53.0436C17.3124 59.0211 21.3462 64.2064 26.5147 68.0404C20.4567 66.6456 14.8926 63.6034 10.4257 59.2436Z" fill="#E2AF45"/>
<path fill-rule="evenodd" clip-rule="evenodd" d="M68.208 35.4914C68.044 40.9129 66.6146 46.2187 64.0363 50.9775C61.458 55.7363 57.8034 59.8137 53.3697 62.8781C48.936 65.9426 43.8485 67.9076 38.5207 68.6133C33.193 69.319 27.7754 68.7456 22.7085 66.9396C23.9447 67.3781 25.2044 67.7459 26.4815 68.0414C21.2953 64.2483 17.2618 59.0681 14.8359 53.0851C26.4386 57.6917 37.8779 57.4227 48.3031 50.7601C57.8602 44.6873 64.1858 33.5828 63.842 17.5508C66.909 23.0113 68.4311 29.2173 68.2424 35.4914H68.208Z" fill="#599F99"/>
<path fill-rule="evenodd" clip-rule="evenodd" d="M18.0078 51.4452C23.4568 36.7405 44.5306 36.6971 43.5938 17.6113C42.5882 30.4682 20.9729 32.6631 18.0078 51.4452Z" fill="#E2AF45"/>
<path fill-rule="evenodd" clip-rule="evenodd" d="M18.875 51.4187C29.4979 35.3866 33.8639 43.0903 42.9913 29.418C41.5216 44.0793 32.0161 38.6746 18.875 51.4187Z" fill="#599F99"/>
<path fill-rule="evenodd" clip-rule="evenodd" d="M20.0508 52.1302C31.705 40.4879 36.5093 46.6734 42.9466 35.6818C41.2277 48.3391 25.9724 47.7405 20.0508 52.1649" fill="#39565E"/>
<path fill-rule="evenodd" clip-rule="evenodd" d="M34.5941 18.4786C35.376 18.4786 36.1404 18.7127 36.7906 19.1512C37.4407 19.5897 37.9474 20.2129 38.2467 20.9421C38.5459 21.6713 38.6242 22.4737 38.4716 23.2478C38.3191 24.022 37.9426 24.733 37.3897 25.2911C36.8367 25.8492 36.1323 26.2293 35.3654 26.3833C34.5985 26.5373 33.8036 26.4582 33.0812 26.1562C32.3588 25.8542 31.7413 25.3427 31.3069 24.6864C30.8725 24.0301 30.6406 23.2586 30.6406 22.4693C30.6406 21.4109 31.0572 20.3959 31.7986 19.6475C32.54 18.8991 33.5456 18.4786 34.5941 18.4786Z" fill="#C6485D"/>
<path d="M81.3316 29.8524V17.3945H77.5586V14.8613H87.6572V17.3945H83.8928V29.8524H81.3316Z" fill="#E3000F"/>
<path d="M81.3316 29.8524V17.3945H77.5586V14.8613H87.6572V17.3945H83.8928V29.8524H81.3316Z" stroke="#E3000F" stroke-width="0.583969" stroke-miterlimit="22.93"/>
<path d="M89.8203 29.8514V14.8603H95.2177C96.22 14.8028 97.2239 14.9413 98.1742 15.2681C98.7964 15.5643 99.3084 16.0538 99.6353 16.6648C100.032 17.3948 100.231 18.2179 100.211 19.0505C100.264 20.0687 99.9595 21.0731 99.3517 21.8874C98.7187 22.6278 97.8373 23.1066 96.8764 23.2321C97.3891 23.5802 97.8469 24.0043 98.2344 24.49C98.7923 25.2587 99.284 26.0743 99.704 26.9278L101.251 29.8514H98.1914L96.3264 26.6068C95.9171 25.8413 95.4607 25.1024 94.9598 24.3946C94.7623 24.1256 94.4986 23.9133 94.1949 23.7786C93.7793 23.6417 93.3424 23.5829 92.9057 23.6051H92.3815V29.8687L89.8203 29.8514ZM92.3987 21.176H94.2981C95.0432 21.2091 95.7896 21.1597 96.524 21.0285C96.8422 20.9242 97.1152 20.7129 97.2976 20.4299C97.505 20.0667 97.6063 19.6516 97.5898 19.2327C97.6057 18.8276 97.5042 18.4266 97.2976 18.0789C97.1006 17.7953 96.8167 17.585 96.4897 17.4803C95.8014 17.3769 95.1051 17.3392 94.4098 17.3675H92.3815L92.3987 21.176Z" fill="#E3000F"/>
<path d="M89.8203 29.8514V14.8603H95.2177C96.22 14.8028 97.2239 14.9413 98.1742 15.2681C98.7964 15.5643 99.3084 16.0538 99.6353 16.6648C100.032 17.3948 100.231 18.2179 100.211 19.0505C100.264 20.0687 99.9595 21.0731 99.3517 21.8874C98.7187 22.6278 97.8373 23.1066 96.8764 23.2321C97.3891 23.5802 97.8469 24.0043 98.2344 24.49C98.7923 25.2587 99.284 26.0743 99.704 26.9278L101.251 29.8514H98.1914L96.3264 26.6068C95.9171 25.8413 95.4607 25.1024 94.9598 24.3946C94.7623 24.1256 94.4986 23.9133 94.1949 23.7786C93.7793 23.6417 93.3424 23.5829 92.9057 23.6051H92.3815V29.8687L89.8203 29.8514ZM92.3987 21.176H94.2981C95.0432 21.2091 95.7896 21.1597 96.524 21.0285C96.8422 20.9242 97.1152 20.7129 97.2976 20.4299C97.505 20.0667 97.6063 19.6516 97.5898 19.2327C97.6057 18.8276 97.5042 18.4266 97.2976 18.0789C97.1006 17.7953 96.8167 17.585 96.4897 17.4803C95.8014 17.3769 95.1051 17.3392 94.4098 17.3675H92.3815L92.3987 21.176Z" stroke="#E3000F" stroke-width="0.583969" stroke-miterlimit="22.93"/>
<path d="M103.133 29.8524V14.8613H112.587V17.3945H105.711V20.7172H112.097V23.2417H105.711V27.3105H112.819V29.8524H103.133Z" fill="#E3000F"/>
<path d="M103.133 29.8524V14.8613H112.587V17.3945H105.711V20.7172H112.097V23.2417H105.711V27.3105H112.819V29.8524H103.133Z" stroke="#E3000F" stroke-width="0.583969" stroke-miterlimit="22.93"/>
<path d="M115.477 29.8524V14.8613H118.055V20.7606H123.1V14.8613H125.678V29.8524H123.1V23.2938H118.055V29.8524H115.477Z" fill="#E3000F"/>
<path d="M115.477 29.8524V14.8613H118.055V20.7606H123.1V14.8613H125.678V29.8524H123.1V23.2938H118.055V29.8524H115.477Z" stroke="#E3000F" stroke-width="0.583969" stroke-miterlimit="22.93"/>
<path d="M140.247 29.8524H137.471L136.354 26.4516H131.266L130.217 29.8524H127.484L132.435 14.8613H135.151L140.247 29.8524ZM135.529 23.9184L133.81 18.3575L132.091 23.9184H135.529Z" fill="#E3000F"/>
<path d="M140.247 29.8524H137.471L136.354 26.4516H131.266L130.217 29.8524H127.484L132.435 14.8613H135.151L140.247 29.8524ZM135.529 23.9184L133.81 18.3575L132.091 23.9184H135.529Z" stroke="#E3000F" stroke-width="0.583969" stroke-miterlimit="22.93"/>
<path d="M142.117 29.8524V14.8613H144.61L149.818 24.8727V14.8613H152.207V29.8524H149.629L144.472 20.0752V29.8524H142.117Z" fill="#E3000F"/>
<path d="M142.117 29.8524V14.8613H144.61L149.818 24.8727V14.8613H152.207V29.8524H149.629L144.472 20.0752V29.8524H142.117Z" stroke="#E3000F" stroke-width="0.583969" stroke-miterlimit="22.93"/>
<path d="M77.7891 52.5115V37.5205H79.1384V52.5115H77.7891Z" fill="#E3000F"/>
<path d="M80.4609 52.5115V37.5205H81.7845L84.5347 47.5319V37.5205H85.8067V52.5115H84.4402L81.7243 42.7344V52.5115H80.4609Z" fill="#E3000F"/>
<path d="M88.7564 52.5115V40.0537H86.7539V37.5205H92.0997V40.0537H90.1058V52.5115H88.7564Z" fill="#E3000F"/>
<path d="M92.9844 52.5115V37.5205H97.9864V40.0537H94.3595V43.3764H97.7458V45.9009H94.3595V49.9697H98.1239V52.5115H92.9844Z" fill="#E3000F"/>
<path d="M99.2656 52.5125V37.5215H102.093C102.646 37.4714 103.198 37.6154 103.657 37.9292C104.04 38.312 104.309 38.7961 104.431 39.3259C104.652 40.101 104.756 40.9053 104.74 41.7117C104.776 42.6791 104.618 43.6439 104.276 44.5485C104.168 44.8562 103.994 45.136 103.767 45.3684C103.54 45.6008 103.265 45.7799 102.961 45.8932C103.254 46.2764 103.497 46.6963 103.683 47.1424C103.872 47.6022 104.13 48.409 104.465 49.5802L105.282 52.5125H103.657L102.669 49.2505C102.317 48.0707 102.076 47.3333 101.956 47.0383C101.871 46.804 101.732 46.593 101.552 46.4224C101.347 46.2919 101.106 46.2311 100.864 46.2489H100.581V52.5125H99.2656ZM100.615 43.8371H101.629C102.027 43.8681 102.428 43.8179 102.807 43.6896C103.003 43.5408 103.145 43.3303 103.211 43.091C103.329 42.7035 103.384 42.2992 103.374 41.8938C103.384 41.5027 103.329 41.1126 103.211 40.74C103.141 40.4984 102.992 40.2875 102.789 40.1414C102.429 40.039 102.054 40.0008 101.681 40.0286H100.615V43.8371Z" fill="#E3000F"/>
<path d="M106.066 52.5115V37.5205H107.39L110.149 47.5319V37.5205H111.412V52.5115H110.046L107.33 42.7344V52.5115H106.066Z" fill="#E3000F"/>
<path d="M118.923 52.5115H117.445L116.861 49.1108H114.128L113.569 52.5115H112.125L114.703 37.5205H116.147L118.923 52.5115ZM116.422 46.5602L115.485 40.9993L114.574 46.5602H116.422Z" fill="#E3000F"/>
<path d="M120.459 52.5115V40.0537H118.422V37.5205H123.776V40.0537H121.86V52.5115H120.459Z" fill="#E3000F"/>
<path d="M124.656 52.5115V37.5205H126.014V52.5115H124.656Z" fill="#E3000F"/>
<path d="M127.02 45.1029C126.988 43.6213 127.135 42.1413 127.458 40.6958C127.641 39.7542 128.029 38.8654 128.593 38.0932C128.792 37.8223 129.051 37.6025 129.349 37.4518C129.648 37.3011 129.978 37.2236 130.312 37.2256C131.274 37.2256 132.031 37.8936 132.667 39.2383C133.36 41.0656 133.67 43.0182 133.578 44.9727C133.673 46.9949 133.342 49.0145 132.606 50.898C132.033 52.1472 131.269 52.7719 130.312 52.7719C129.332 52.7719 128.593 52.1559 128 50.924C127.272 49.0746 126.938 47.0912 127.02 45.1029ZM128.421 45.0074C128.359 46.3229 128.543 47.6383 128.962 48.8853C129.315 49.7528 129.762 50.1779 130.294 50.1779C130.827 50.1779 131.274 49.7529 131.627 48.894C132.039 47.6246 132.216 46.2896 132.151 44.9554C132.215 43.6475 132.041 42.3388 131.635 41.0948C131.3 40.2273 130.845 39.8543 130.294 39.8543C129.744 39.8543 129.289 40.2707 128.945 41.1122C128.537 42.3673 128.365 43.6884 128.438 45.0074H128.421Z" fill="#E3000F"/>
<path d="M134.652 52.5115V37.5205H135.976L138.735 47.5319V37.5205H139.998V52.5115H138.632L135.916 42.7344V52.5115H134.652Z" fill="#E3000F"/>
<path d="M147.508 52.5115H146.029L145.445 49.1108H142.746L142.188 52.5115H140.77L143.348 37.5205H144.792L147.508 52.5115ZM145.007 46.5602L144.07 40.9993L143.159 46.5602H145.007Z" fill="#E3000F"/>
<path d="M148.254 52.5121V37.6426H149.612V49.9703H152.998V52.5121H148.254Z" fill="#E3000F"/>
</g>
<defs>
<clipPath id="clip0_1489_3217">
<rect width="153" height="68.9084" fill="white"/>
</clipPath>
</defs>
</svg>
