<svg width="206" height="266" viewBox="0 0 206 266" fill="none" xmlns="http://www.w3.org/2000/svg">
<g opacity="0.5">
<path fill-rule="evenodd" clip-rule="evenodd" d="M131.343 0.420998C154.667 0.41711 177.571 6.68046 197.705 18.568C217.839 30.4555 234.476 47.5389 245.909 68.064C246.869 112.212 234.654 146.669 214.164 171.266C220.023 87.3142 170.503 13.5552 63.418 19.3704C83.918 6.903 107.411 0.348965 131.343 0.420998Z" fill="black" fill-opacity="0.2"/>
<path fill-rule="evenodd" clip-rule="evenodd" d="M40.1149 228.785C24.592 213.622 13.0014 194.832 6.36609 174.072C-0.269235 153.311 -1.74533 131.22 2.06805 109.748C5.88143 88.2747 14.867 68.0803 28.232 50.9465C41.5969 33.8127 58.9303 20.2661 78.7025 11.5022C73.4688 13.8065 68.3843 16.4422 63.4793 19.3937C87.6997 17.5251 112.034 20.9464 134.83 29.4252C123.795 34.2404 113.188 40.0017 103.126 46.646C88.7275 56.3592 76.4353 68.9303 66.9968 83.5948C57.5583 98.2592 51.1708 114.71 48.2229 131.948C44.5713 156.628 47.6559 181.848 57.1444 204.888C66.6328 227.928 82.1651 247.914 102.067 262.692C78.7401 257.316 57.3152 245.59 40.1149 228.785Z" fill="black" fill-opacity="0.3"/>
<path fill-rule="evenodd" clip-rule="evenodd" d="M262.696 137.183C262.065 158.046 256.563 178.464 246.638 196.777C236.714 215.09 222.647 230.78 205.581 242.573C188.515 254.366 168.932 261.927 148.425 264.643C127.917 267.359 107.064 265.152 87.5608 258.202C92.319 259.89 97.1677 261.305 102.084 262.442C82.1209 247.845 66.5955 227.911 57.2578 204.887C101.918 222.614 145.95 221.579 186.079 195.94C222.866 172.571 247.214 129.838 245.891 68.1433C257.696 89.1566 263.555 113.039 262.828 137.183H262.696Z" fill="black" fill-opacity="0.5"/>
</g>
</svg>
